<svg xmlns="http://www.w3.org/2000/svg" width="1200" height="280" viewBox="0 0 1200 280" role="img">
<title>초록에 보고된 MetaVision-SPR workflow</title>
<rect width="1200" height="280" rx="20" fill="#f6f4f0"/>
<defs><marker id="arrow" viewBox="0 0 10 10" refX="9" refY="5" markerWidth="6" markerHeight="6" orient="auto-start-reverse"><path d="M 0 0 L 10 5 L 0 10 z" fill="#93847b"/></marker></defs>
<g font-family="Malgun Gothic, sans-serif">
<text x="30" y="39" font-size="19" font-weight="700" fill="#43382f">초록에 보고된 MetaVision-SPR workflow</text>
<path d="M298 139 L317 139" stroke="#93847b" stroke-width="2" marker-end="url(#arrow)"/>
<rect x="28" y="71" width="268" height="167" rx="12" fill="#fff" stroke="#e0d6cc"/>
<text x="46" y="101" font-size="14" fill="#a45d38">01</text>
<text x="46" y="135" font-size="19" font-weight="700" fill="#2f2823">96-well 광학계</text>
<text x="46" y="165" font-size="15" fill="#675d55">Ti/Ag/Au nanocup</text>
<text x="46" y="189" font-size="15" fill="#675d55">LED·산업용 카메라</text>
<path d="M592 139 L611 139" stroke="#93847b" stroke-width="2" marker-end="url(#arrow)"/>
<rect x="322" y="71" width="268" height="167" rx="12" fill="#fff" stroke="#e0d6cc"/>
<text x="340" y="101" font-size="14" fill="#a45d38">02</text>
<text x="340" y="135" font-size="19" font-weight="700" fill="#2f2823">계산 보정</text>
<text x="340" y="165" font-size="15" fill="#675d55">자동 well 인식</text>
<text x="340" y="189" font-size="15" fill="#675d55">Sucrose flat-field</text>
<path d="M886 139 L905 139" stroke="#93847b" stroke-width="2" marker-end="url(#arrow)"/>
<rect x="616" y="71" width="268" height="167" rx="12" fill="#fff" stroke="#e0d6cc"/>
<text x="634" y="101" font-size="14" fill="#a45d38">03</text>
<text x="634" y="135" font-size="19" font-weight="700" fill="#2f2823">혈청 면역 정량</text>
<text x="634" y="165" font-size="15" fill="#675d55">AuNP sandwich assay</text>
<text x="634" y="189" font-size="15" fill="#675d55">AFP·CEA·CA19-9</text>
<rect x="910" y="71" width="268" height="167" rx="12" fill="#fff" stroke="#e0d6cc"/>
<text x="928" y="101" font-size="14" fill="#a45d38">04</text>
<text x="928" y="135" font-size="19" font-weight="700" fill="#2f2823">결합 예비 선별</text>
<text x="928" y="165" font-size="15" fill="#675d55">실시간 결합 곡선</text>
<text x="928" y="189" font-size="15" fill="#675d55">Apparent kinetics</text>
</g></svg>